<?xml version="1.0" encoding="UTF-8"?>
<svg xmlns="http://www.w3.org/2000/svg" xmlns:xlink="http://www.w3.org/1999/xlink" width="10pt" height="10pt" viewBox="0 0 10 10" version="1.1">
<g id="surface1">
<path style=" stroke:none;fill-rule:nonzero;fill:rgb(0%,0%,0%);fill-opacity:1;" d="M 9.6875 7.5 L 1.25 7.5 L 1.25 1.5625 C 1.25 1.390625 1.109375 1.25 0.9375 1.25 L 0.3125 1.25 C 0.140625 1.25 0 1.390625 0 1.5625 L 0 8.125 C 0 8.46875 0.28125 8.75 0.625 8.75 L 9.6875 8.75 C 9.859375 8.75 10 8.609375 10 8.4375 L 10 7.8125 C 10 7.640625 9.859375 7.5 9.6875 7.5 Z M 9.0625 1.875 L 6.757812 1.875 C 6.339844 1.875 6.128906 2.378906 6.425781 2.675781 L 7.058594 3.308594 L 5.625 4.742188 L 4.191406 3.308594 C 3.949219 3.0625 3.550781 3.0625 3.308594 3.308594 L 1.964844 4.648438 C 1.84375 4.773438 1.84375 4.96875 1.964844 5.09375 L 2.410156 5.535156 C 2.53125 5.65625 2.726562 5.65625 2.851562 5.535156 L 3.75 4.632812 L 5.183594 6.066406 C 5.425781 6.3125 5.824219 6.3125 6.066406 6.066406 L 7.941406 4.191406 L 8.574219 4.824219 C 8.871094 5.121094 9.375 4.910156 9.375 4.492188 L 9.375 2.1875 C 9.375 2.015625 9.234375 1.875 9.0625 1.875 Z M 9.0625 1.875 "/>
</g>
</svg>
