<?xml version="1.0" encoding="UTF-8"?>
<svg xmlns="http://www.w3.org/2000/svg" xmlns:xlink="http://www.w3.org/1999/xlink" width="15pt" height="20pt" viewBox="0 0 15 20" version="1.1">
<g id="surface1">
<path style=" stroke:none;fill-rule:nonzero;fill:rgb(0%,0%,0%);fill-opacity:1;" d="M 6.730469 19.597656 C 1.054688 11.367188 0 10.523438 0 7.5 C 0 3.359375 3.359375 0 7.5 0 C 11.640625 0 15 3.359375 15 7.5 C 15 10.523438 13.945312 11.367188 8.269531 19.597656 C 7.898438 20.132812 7.101562 20.132812 6.730469 19.597656 Z M 7.5 10.625 C 9.226562 10.625 10.625 9.226562 10.625 7.5 C 10.625 5.773438 9.226562 4.375 7.5 4.375 C 5.773438 4.375 4.375 5.773438 4.375 7.5 C 4.375 9.226562 5.773438 10.625 7.5 10.625 Z M 7.5 10.625 "/>
</g>
</svg>
