<?xml version="1.0" encoding="UTF-8"?>
<svg xmlns="http://www.w3.org/2000/svg" xmlns:xlink="http://www.w3.org/1999/xlink" width="15pt" height="20pt" viewBox="0 0 15 20" version="1.1">
<g id="surface1">
<path style=" stroke:none;fill-rule:nonzero;fill:rgb(0%,0%,0%);fill-opacity:1;" d="M 4.6875 2.8125 C 4.6875 1.257812 5.945312 0 7.5 0 C 9.054688 0 10.3125 1.257812 10.3125 2.8125 C 10.3125 4.367188 9.054688 5.625 7.5 5.625 C 5.945312 5.625 4.6875 4.367188 4.6875 2.8125 Z M 14.632812 2.867188 C 14.144531 2.378906 13.355469 2.378906 12.867188 2.867188 L 9.480469 6.25 L 5.519531 6.25 L 2.132812 2.867188 C 1.644531 2.378906 0.855469 2.378906 0.367188 2.867188 C -0.121094 3.355469 -0.121094 4.144531 0.367188 4.632812 L 4.0625 8.332031 L 4.0625 18.75 C 4.0625 19.441406 4.621094 20 5.3125 20 L 5.9375 20 C 6.628906 20 7.1875 19.441406 7.1875 18.75 L 7.1875 14.375 L 7.8125 14.375 L 7.8125 18.75 C 7.8125 19.441406 8.371094 20 9.0625 20 L 9.6875 20 C 10.378906 20 10.9375 19.441406 10.9375 18.75 L 10.9375 8.332031 L 14.632812 4.632812 C 15.121094 4.144531 15.121094 3.355469 14.632812 2.867188 Z M 14.632812 2.867188 "/>
</g>
</svg>
