<?xml version="1.0" encoding="UTF-8"?>
<svg xmlns="http://www.w3.org/2000/svg" xmlns:xlink="http://www.w3.org/1999/xlink" width="10pt" height="26pt" viewBox="0 0 10 26" version="1.1">
<g id="surface1">
<path style=" stroke:none;fill-rule:nonzero;fill:rgb(0%,0%,0%);fill-opacity:1;" d="M 1.042969 21.542969 L 2.082031 21.542969 L 2.082031 14.207031 L 1.042969 14.207031 C 0.464844 14.207031 0 13.753906 0 13.191406 L 0 10.765625 C 0 10.203125 0.464844 9.75 1.042969 9.75 L 6.875 9.75 C 7.449219 9.75 7.917969 10.203125 7.917969 10.765625 L 7.917969 21.542969 L 8.957031 21.542969 C 9.535156 21.542969 10 21.996094 10 22.558594 L 10 24.984375 C 10 25.546875 9.535156 26 8.957031 26 L 1.042969 26 C 0.464844 26 0 25.546875 0 24.984375 L 0 22.558594 C 0 21.996094 0.464844 21.542969 1.042969 21.542969 Z M 5 0 C 2.929688 0 1.25 1.636719 1.25 3.65625 C 1.25 5.675781 2.929688 7.3125 5 7.3125 C 7.070312 7.3125 8.75 5.675781 8.75 3.65625 C 8.75 1.636719 7.070312 0 5 0 Z M 5 0 "/>
</g>
</svg>
