<?xml version="1.0" encoding="UTF-8"?>
<svg xmlns="http://www.w3.org/2000/svg" xmlns:xlink="http://www.w3.org/1999/xlink" width="15pt" height="12pt" viewBox="0 0 15 12" version="1.1">
<g id="surface1">
<path style=" stroke:none;fill-rule:nonzero;fill:rgb(0%,0%,0%);fill-opacity:1;" d="M 14.558594 1.277344 C 13.648438 0.894531 12.738281 0.75 11.828125 0.75 C 8.941406 0.75 6.058594 2.210938 3.171875 2.210938 C 2.445312 2.210938 1.722656 2.121094 1 1.890625 C 0.917969 1.863281 0.835938 1.851562 0.757812 1.851562 C 0.351562 1.851562 0 2.164062 0 2.597656 L 0 10.03125 C 0 10.328125 0.167969 10.609375 0.441406 10.722656 C 1.351562 11.105469 2.261719 11.25 3.171875 11.25 C 6.058594 11.25 8.945312 9.789062 11.832031 9.789062 C 12.554688 9.789062 13.277344 9.878906 14 10.109375 C 14.082031 10.136719 14.164062 10.148438 14.246094 10.148438 C 14.648438 10.148438 15 9.835938 15 9.402344 L 15 1.96875 C 15 1.671875 14.832031 1.390625 14.558594 1.277344 Z M 1.125 3.097656 C 1.597656 3.21875 2.089844 3.277344 2.59375 3.308594 C 2.457031 3.996094 1.851562 4.515625 1.125 4.515625 Z M 1.125 9.777344 L 1.125 8.660156 C 1.929688 8.660156 2.582031 9.296875 2.617188 10.097656 C 2.089844 10.054688 1.597656 9.949219 1.125 9.777344 Z M 7.5 8.25 C 6.464844 8.25 5.625 7.242188 5.625 6 C 5.625 4.757812 6.464844 3.75 7.5 3.75 C 8.535156 3.75 9.375 4.757812 9.375 6 C 9.375 7.242188 8.535156 8.25 7.5 8.25 Z M 13.875 8.902344 C 13.464844 8.796875 13.039062 8.742188 12.601562 8.703125 C 12.738281 8.09375 13.246094 7.628906 13.875 7.546875 Z M 13.875 3.367188 C 13.152344 3.277344 12.589844 2.671875 12.566406 1.925781 C 13.023438 1.976562 13.460938 2.070312 13.875 2.222656 Z M 13.875 3.367188 "/>
</g>
</svg>
