<?xml version="1.0" encoding="UTF-8"?>
<svg xmlns="http://www.w3.org/2000/svg" xmlns:xlink="http://www.w3.org/1999/xlink" width="14pt" height="13pt" viewBox="0 0 14 13" version="1.1">
<g id="surface1">
<path style=" stroke:none;fill-rule:nonzero;fill:rgb(0%,0%,0%);fill-opacity:1;" d="M 7.246094 5.6875 L 10.890625 7.046875 L 10.890625 12.59375 C 10.890625 12.816406 10.714844 13 10.5 13 L 8.945312 13 C 8.730469 13 8.554688 12.816406 8.554688 12.59375 L 8.554688 9.75 L 4.667969 9.75 L 4.667969 12.59375 C 4.667969 12.816406 4.492188 13 4.277344 13 L 2.722656 13 C 2.507812 13 2.332031 12.816406 2.332031 12.59375 L 2.332031 7.164062 C 1.429688 6.824219 0.777344 5.933594 0.777344 4.875 C 0.777344 4.425781 1.125 4.0625 1.554688 4.0625 C 1.984375 4.0625 2.332031 4.425781 2.332031 4.875 C 2.335938 5.324219 2.683594 5.6875 3.109375 5.6875 Z M 13.222656 2.84375 L 13.222656 3.65625 C 13.222656 4.554688 12.527344 5.28125 11.667969 5.28125 L 10.890625 5.28125 L 10.890625 6.183594 L 7.777344 5.023438 L 7.777344 1.21875 C 7.777344 0.855469 8.195312 0.675781 8.441406 0.929688 L 9.105469 1.625 L 10.40625 1.625 C 10.671875 1.625 10.984375 1.824219 11.105469 2.074219 L 11.277344 2.4375 L 12.832031 2.4375 C 13.046875 2.4375 13.222656 2.621094 13.222656 2.84375 Z M 10.5 2.84375 C 10.5 2.621094 10.324219 2.4375 10.109375 2.4375 C 9.894531 2.4375 9.722656 2.621094 9.722656 2.84375 C 9.722656 3.066406 9.894531 3.25 10.109375 3.25 C 10.324219 3.25 10.5 3.066406 10.5 2.84375 Z M 10.5 2.84375 "/>
</g>
</svg>
